<svg width="32" height="32" viewBox="0 0 32 32" fill="none" xmlns="http://www.w3.org/2000/svg">
<path d="M12.7407 29.0371C19.7773 29.0371 25.4815 23.3329 25.4815 16.2963C25.4815 9.25983 19.7773 3.5556 12.7407 3.5556C5.70422 3.5556 0 9.25983 0 16.2963C0 23.3329 5.70422 29.0371 12.7407 29.0371Z" fill="#E5EFEF"/>
<path d="M15.7037 5.33333H3.55556V3.39126C3.55556 1.84563 4.80859 0.59259 6.35422 0.59259H15.7037V5.33333Z" fill="#F8F8F8"/>
<path d="M15.7037 5.92593H3.55556C3.2283 5.92593 2.96297 5.66059 2.96297 5.33333V3.39126C2.96297 1.52148 4.48445 0 6.35423 0H15.7037C16.031 0 16.2963 0.265333 16.2963 0.592593V5.33333C16.2963 5.66059 16.031 5.92593 15.7037 5.92593ZM4.14815 4.74074H15.1111V1.18519H6.35423C5.13778 1.18519 4.14815 2.17481 4.14815 3.39126V4.74074Z" fill="#4D65F1"/>
<path d="M6.35468 0.595405C7.93379 0.66222 8.8889 1.92933 8.8889 3.55555V26.847C8.8889 29.0384 10.253 30.8148 12.4445 30.8148H26.6667L29.037 29.0453V3.94755C29.037 2.09466 27.535 0.59259 25.6821 0.59259H6.51853L6.35468 0.595405Z" fill="white"/>
<path d="M26.6667 31.4074H12.4445C10.0408 31.4074 8.29631 29.4896 8.29631 26.847V3.55556C8.29631 2.16756 7.52431 1.23807 6.32964 1.18756C6.00964 1.17393 5.75853 0.908593 5.76223 0.588296C5.76623 0.268 6.02416 0.00874081 6.34445 0.00296303L6.50816 0H25.6821C27.8588 0 29.6296 1.77082 29.6296 3.94756V29.0453C29.6296 29.2323 29.5413 29.4084 29.3916 29.5201L27.0212 31.2895C26.9187 31.3661 26.7945 31.4074 26.6667 31.4074ZM8.7246 1.18519C9.2049 1.79926 9.48149 2.61748 9.48149 3.55556V26.847C9.48149 28.8342 10.7 30.2222 12.4445 30.2222H26.4699L28.4445 28.7483V3.94756C28.4445 2.42444 27.2052 1.18519 25.6821 1.18519H8.7246Z" fill="#4D65F1"/>
<path d="M12.4444 30.8148H28.576C30.1397 30.8148 31.4074 29.5471 31.4074 27.9834V26.6667H15.4074V27.5556C15.4074 29.2828 14.0638 30.6962 12.3649 30.8077L12.4444 30.8148Z" fill="#F8F8F8"/>
<path d="M28.5762 31.4074H12.4444C12.4274 31.4074 12.4101 31.4065 12.3929 31.405L12.3133 31.398C12.0049 31.3711 11.769 31.1112 11.7723 30.8014C11.7757 30.4918 12.0167 30.2369 12.3261 30.2164C13.7216 30.1247 14.8148 28.956 14.8148 27.5555V26.6666C14.8148 26.3394 15.0801 26.074 15.4074 26.074H31.4074C31.7347 26.074 32 26.3394 32 26.6666V27.9835C32 29.8715 30.4641 31.4074 28.5762 31.4074ZM14.9239 30.2222H28.576C29.8104 30.2222 30.8147 29.2179 30.8147 27.9835V27.2592H16V27.5555C16 28.5844 15.5911 29.5272 14.9239 30.2222Z" fill="#4D65F1"/>
<path d="M2.61571 23.3564C2.46415 23.3564 2.31245 23.2985 2.19674 23.1828L0.520891 21.5069C0.289484 21.2755 0.289484 20.9004 0.520891 20.669C0.752299 20.4376 1.12741 20.4376 1.35882 20.669L3.03467 22.3448C3.26608 22.5762 3.26608 22.9513 3.03467 23.1828C2.91897 23.2986 2.76741 23.3564 2.61571 23.3564Z" fill="#4D65F1"/>
<path d="M0.939855 23.3564C0.788299 23.3564 0.636595 23.2985 0.520891 23.1828C0.289484 22.9513 0.289484 22.5762 0.520891 22.3448L2.19674 20.669C2.42815 20.4376 2.80326 20.4376 3.03467 20.669C3.26608 20.9004 3.26608 21.2755 3.03467 21.5069L1.35882 23.1828C1.24311 23.2986 1.09141 23.3564 0.939855 23.3564Z" fill="#4D65F1"/>
<path d="M5.92592 20.7408C6.2532 20.7408 6.51851 20.4755 6.51851 20.1482C6.51851 19.8209 6.2532 19.5556 5.92592 19.5556C5.59864 19.5556 5.33333 19.8209 5.33333 20.1482C5.33333 20.4755 5.59864 20.7408 5.92592 20.7408Z" fill="#4D65F1"/>
<path d="M4.14815 14.2222C4.47543 14.2222 4.74074 13.9569 4.74074 13.6296C4.74074 13.3024 4.47543 13.037 4.14815 13.037C3.82087 13.037 3.55556 13.3024 3.55556 13.6296C3.55556 13.9569 3.82087 14.2222 4.14815 14.2222Z" fill="#4D65F1"/>
</svg>
